<svg xmlns="http://www.w3.org/2000/svg" xmlns:xlink="http://www.w3.org/1999/xlink" width="500" zoomAndPan="magnify" viewBox="0 0 375 374.999991" height="500" preserveAspectRatio="xMidYMid meet" version="1.0"><defs><g/><clipPath id="233a623b5c"><path d="M 138 99.082031 L 243 99.082031 L 243 190 L 138 190 Z M 138 99.082031 " clip-rule="nonzero"/></clipPath><clipPath id="30f19dd523"><path d="M 110.414062 99.082031 L 264.914062 99.082031 L 264.914062 210.832031 L 110.414062 210.832031 Z M 110.414062 99.082031 " clip-rule="nonzero"/></clipPath></defs><rect x="-37.5" width="450" fill="#ffffff" y="-37.499999" height="449.999989" fill-opacity="1"/><rect x="-37.5" width="450" fill="#000000" y="-37.499999" height="449.999989" fill-opacity="1"/><path fill="#e6e7e8" d="M 159.363281 195.371094 C 150.4375 188.207031 143.640625 178.253906 140.496094 166.363281 C 133.355469 139.410156 147.445312 111.835938 172.445312 101.261719 C 144.222656 109.472656 127.53125 138.671875 135.0625 167.214844 C 138.089844 178.71875 144.613281 188.363281 153.191406 195.332031 L 159.324219 195.332031 Z M 186.574219 193.511719 C 184.285156 194.054688 181.996094 192.621094 181.492188 190.335938 C 180.949219 188.050781 182.382812 185.765625 184.675781 185.261719 C 185.488281 185.070312 186.304688 185.148438 187.042969 185.417969 C 186.03125 184.875 184.789062 184.683594 183.585938 184.953125 C 180.910156 185.574219 179.238281 188.246094 179.859375 190.917969 C 180.480469 193.589844 183.160156 195.253906 185.839844 194.636719 C 187.664062 194.210938 189.023438 192.855469 189.488281 191.1875 C 188.945312 192.3125 187.894531 193.242188 186.574219 193.511719 Z M 147.253906 167.023438 C 150.164062 166.246094 151.910156 163.265625 151.171875 160.320312 C 150.398438 157.417969 147.40625 155.675781 144.457031 156.410156 C 141.546875 157.183594 139.800781 160.167969 140.535156 163.109375 C 141.3125 166.015625 144.300781 167.757812 147.253906 167.023438 Z M 158.355469 151.53125 C 154.277344 152.113281 150.320312 149.59375 149.269531 145.527344 C 148.300781 141.808594 150.046875 137.976562 153.347656 136.234375 C 153.191406 136.273438 153.074219 136.308594 152.921875 136.347656 C 148.570312 137.472656 146.011719 141.925781 147.136719 146.226562 C 148.261719 150.5625 152.726562 153.117188 157.035156 151.996094 C 157.5 151.878906 157.925781 151.722656 158.355469 151.53125 Z M 209.632812 125.582031 C 211.652344 124.964844 212.777344 122.871094 212.195312 120.859375 C 211.613281 118.84375 209.480469 117.722656 207.460938 118.300781 C 206.722656 118.535156 206.140625 118.921875 205.675781 119.464844 C 206.21875 118.574219 207.113281 117.875 208.160156 117.566406 C 210.527344 116.867188 213.011719 118.183594 213.710938 120.546875 C 214.410156 122.910156 213.089844 125.390625 210.722656 126.085938 C 209.128906 126.550781 207.460938 126.085938 206.335938 125.039062 C 207.265625 125.699219 208.46875 125.929688 209.632812 125.582031 Z M 225.394531 143.28125 C 227.648438 142.625 228.929688 140.261719 228.269531 138.015625 C 227.609375 135.769531 225.238281 134.488281 222.988281 135.148438 C 222.171875 135.382812 221.511719 135.847656 221.007812 136.425781 C 221.628906 135.457031 222.601562 134.683594 223.804688 134.335938 C 226.441406 133.5625 229.199219 135.03125 230.015625 137.664062 C 230.792969 140.300781 229.316406 143.050781 226.675781 143.863281 C 224.890625 144.40625 223.027344 143.863281 221.785156 142.660156 C 222.832031 143.398438 224.152344 143.667969 225.472656 143.28125 Z M 163.363281 173.878906 C 161.070312 174.417969 158.78125 172.988281 158.277344 170.703125 C 157.734375 168.417969 159.167969 166.132812 161.460938 165.628906 C 162.273438 165.433594 163.089844 165.511719 163.828125 165.78125 C 162.820312 165.242188 161.578125 165.046875 160.375 165.316406 C 157.695312 165.9375 156.027344 168.609375 156.648438 171.28125 C 157.269531 173.953125 159.945312 175.621094 162.625 175 C 164.449219 174.574219 165.808594 173.21875 166.273438 171.554688 C 165.730469 172.675781 164.683594 173.605469 163.363281 173.878906 Z M 158.199219 123.21875 C 157.34375 120.042969 159.246094 116.828125 162.429688 115.976562 C 165.613281 115.125 168.835938 117.023438 169.691406 120.199219 C 170 121.324219 169.921875 122.484375 169.613281 123.53125 C 170.351562 122.058594 170.542969 120.355469 170.117188 118.6875 C 169.144531 114.972656 165.304688 112.761719 161.617188 113.730469 C 157.890625 114.699219 155.675781 118.535156 156.648438 122.214844 C 157.304688 124.730469 159.285156 126.550781 161.617188 127.171875 C 159.984375 126.472656 158.703125 125.078125 158.199219 123.21875 Z M 158.199219 123.21875 " fill-opacity="1" fill-rule="evenodd"/><g clip-path="url(#233a623b5c)"><path fill="#fefefe" d="M 162.625 174.960938 C 159.945312 175.582031 157.269531 173.914062 156.648438 171.242188 C 156.027344 168.570312 157.695312 165.898438 160.375 165.28125 C 161.578125 165.007812 162.820312 165.203125 163.828125 165.746094 C 163.089844 165.472656 162.273438 165.433594 161.460938 165.589844 C 159.167969 166.132812 157.734375 168.378906 158.277344 170.664062 C 158.820312 172.949219 161.070312 174.378906 163.363281 173.839844 C 164.683594 173.527344 165.730469 172.636719 166.273438 171.515625 C 165.769531 173.179688 164.410156 174.535156 162.625 174.960938 Z M 240.261719 139.484375 C 232.578125 110.515625 202.839844 93.246094 173.804688 100.875 C 173.339844 100.988281 172.910156 101.105469 172.484375 101.261719 C 147.484375 111.835938 133.394531 139.410156 140.535156 166.363281 C 142.789062 174.804688 146.863281 182.320312 152.261719 188.476562 C 159.519531 186.890625 167.398438 185.765625 175.667969 185.222656 L 176.988281 179.144531 C 176.289062 177.828125 175.28125 175.890625 174.425781 174.34375 C 174.269531 174.378906 174.113281 174.378906 173.921875 174.378906 C 172.910156 174.378906 172.214844 173.722656 172.097656 172.675781 C 171.941406 170.894531 174.269531 169.617188 175.359375 169.074219 C 177.609375 164.503906 179.898438 159.394531 180.363281 157.609375 L 179.550781 157.109375 C 179.160156 156.835938 179.007812 156.332031 179.199219 155.90625 C 180.675781 152.539062 182.8125 148.472656 184.597656 148.355469 C 185.488281 148.277344 186.886719 147.851562 187.78125 147.582031 L 187.703125 146.226562 C 187.429688 145.722656 187.234375 145.140625 187.160156 144.558594 L 186.964844 144.558594 C 186.574219 144.519531 186.265625 144.25 186.148438 143.902344 C 186.109375 143.785156 185.410156 141.5 186.613281 139.71875 C 187.390625 138.558594 188.75 137.9375 190.613281 137.820312 C 192.632812 137.703125 193.992188 138.207031 194.804688 139.292969 C 195.542969 140.300781 195.582031 141.5 195.464844 142.273438 L 195.894531 142.429688 C 196.28125 142.585938 196.515625 142.933594 196.515625 143.320312 L 196.515625 144.132812 C 196.515625 144.675781 196.085938 145.101562 195.542969 145.101562 L 195.15625 145.101562 C 195 145.761719 194.6875 146.378906 194.300781 146.882812 L 194.300781 147.582031 C 195.542969 148.046875 198.300781 149.128906 200.589844 150.445312 C 201.25 150.832031 201.871094 151.027344 202.492188 151.027344 C 203.65625 151.027344 204.664062 150.292969 205.558594 149.4375 L 205.558594 148.511719 C 205.558594 148.082031 205.832031 147.734375 206.21875 147.582031 L 206.21875 145.761719 C 206.21875 145.21875 206.644531 144.792969 207.1875 144.792969 L 207.265625 144.792969 L 207.265625 142.507812 C 207.265625 142.003906 207.65625 141.617188 208.121094 141.578125 L 209.75 141.421875 L 202.21875 141.421875 C 201.675781 141.421875 201.25 140.996094 201.25 140.453125 L 201.25 137.125 C 201.25 136.582031 201.675781 136.15625 202.21875 136.15625 L 214.214844 136.15625 C 214.757812 136.15625 215.1875 136.582031 215.1875 137.125 L 215.1875 137.898438 C 215.261719 137.859375 215.339844 137.859375 215.457031 137.859375 C 216 137.859375 216.429688 138.285156 216.429688 138.828125 L 216.429688 141.847656 C 216.429688 142.351562 216.039062 142.738281 215.574219 142.816406 L 209.246094 143.4375 L 209.246094 144.871094 L 209.324219 144.871094 C 209.867188 144.871094 210.292969 145.296875 210.292969 145.835938 L 210.292969 151.144531 C 210.292969 152.652344 209.441406 153.816406 208.316406 153.816406 C 207.964844 153.816406 207.617188 153.699219 207.34375 153.507812 L 205.753906 156.023438 C 205.597656 156.253906 205.363281 156.410156 205.054688 156.449219 L 202.066406 156.835938 C 201.988281 156.992188 201.910156 157.109375 201.792969 157.222656 C 201.558594 157.417969 201.289062 157.496094 200.976562 157.417969 L 199.074219 157.03125 L 197.5625 166.710938 C 197.757812 167.601562 198.492188 171.398438 198.378906 173.527344 C 198.378906 173.761719 198.261719 173.992188 198.105469 174.148438 C 197.871094 174.378906 196.980469 175.269531 196.359375 175.8125 C 196.398438 177.128906 196.550781 180.964844 196.628906 185.1875 C 208.003906 185.726562 218.679688 187.355469 228.113281 189.792969 C 239.953125 176.664062 245.152344 158 240.261719 139.640625 Z M 226.636719 143.824219 C 224.851562 144.367188 222.988281 143.824219 221.746094 142.625 C 222.792969 143.359375 224.113281 143.628906 225.433594 143.242188 C 227.6875 142.585938 228.964844 140.222656 228.308594 137.976562 C 227.648438 135.730469 225.277344 134.453125 223.027344 135.109375 C 222.210938 135.34375 221.550781 135.808594 221.046875 136.386719 C 221.667969 135.417969 222.640625 134.644531 223.84375 134.296875 C 226.480469 133.523438 229.238281 134.992188 230.054688 137.628906 C 230.828125 140.261719 229.355469 143.011719 226.714844 143.824219 Z M 151.171875 160.320312 C 151.949219 163.226562 150.203125 166.246094 147.253906 167.023438 C 144.339844 167.796875 141.3125 166.054688 140.535156 163.109375 C 139.761719 160.207031 141.507812 157.183594 144.457031 156.410156 C 147.367188 155.636719 150.398438 157.378906 151.171875 160.320312 Z M 157.074219 151.996094 C 152.726562 153.117188 148.300781 150.5625 147.175781 146.226562 C 146.050781 141.886719 148.609375 137.472656 152.957031 136.347656 C 153.113281 136.308594 153.230469 136.273438 153.386719 136.234375 C 150.125 137.976562 148.339844 141.769531 149.308594 145.527344 C 150.398438 149.59375 154.355469 152.113281 158.394531 151.53125 C 157.964844 151.722656 157.539062 151.878906 157.074219 151.996094 Z M 210.722656 126.085938 C 209.128906 126.550781 207.460938 126.085938 206.335938 125.039062 C 207.265625 125.699219 208.46875 125.929688 209.632812 125.582031 C 211.652344 124.964844 212.777344 122.871094 212.195312 120.859375 C 211.613281 118.84375 209.480469 117.722656 207.460938 118.300781 C 206.722656 118.535156 206.140625 118.921875 205.675781 119.464844 C 206.21875 118.574219 207.113281 117.875 208.160156 117.566406 C 210.527344 116.867188 213.011719 118.183594 213.710938 120.546875 C 214.410156 122.910156 213.089844 125.390625 210.722656 126.085938 Z M 161.617188 127.132812 C 159.246094 126.511719 157.304688 124.691406 156.648438 122.175781 C 155.675781 118.457031 157.890625 114.660156 161.617188 113.691406 C 165.34375 112.726562 169.144531 114.933594 170.117188 118.648438 C 170.582031 120.355469 170.351562 122.058594 169.613281 123.492188 C 169.960938 122.445312 170 121.324219 169.691406 120.160156 C 168.835938 116.984375 165.613281 115.125 162.429688 115.9375 C 159.246094 116.792969 157.382812 120.003906 158.199219 123.179688 C 158.703125 125 159.984375 126.433594 161.617188 127.132812 Z M 161.617188 127.132812 " fill-opacity="1" fill-rule="evenodd"/></g><g clip-path="url(#30f19dd523)"><path fill="#fefefe" d="M 162.625 174.960938 C 159.945312 175.582031 157.269531 173.914062 156.648438 171.242188 C 156.027344 168.570312 157.695312 165.898438 160.375 165.28125 C 161.578125 165.007812 162.820312 165.203125 163.828125 165.746094 C 163.089844 165.472656 162.273438 165.433594 161.460938 165.589844 C 159.167969 166.132812 157.734375 168.378906 158.277344 170.664062 C 158.820312 172.949219 161.070312 174.378906 163.363281 173.839844 C 164.683594 173.527344 165.730469 172.636719 166.273438 171.515625 C 165.769531 173.179688 164.410156 174.535156 162.625 174.960938 Z M 264.914062 210.785156 C 259.167969 201.644531 245.386719 194.015625 227.21875 189.40625 C 227.53125 189.484375 227.800781 189.5625 228.074219 189.640625 C 239.914062 176.511719 245.117188 157.84375 240.222656 139.484375 C 232.539062 110.515625 202.800781 93.246094 173.765625 100.875 C 173.300781 100.988281 172.871094 101.105469 172.445312 101.261719 C 147.445312 111.835938 133.355469 139.410156 140.496094 166.363281 C 142.75 174.804688 146.824219 182.320312 152.222656 188.476562 L 152.375 188.4375 C 132.074219 192.855469 116.585938 200.988281 110.414062 210.785156 C 128.464844 202.070312 156.375 196.457031 187.664062 196.457031 C 218.953125 196.457031 246.863281 202.03125 264.914062 210.785156 Z M 227.179688 189.40625 C 225.820312 189.058594 224.425781 188.75 222.988281 188.4375 C 224.425781 188.75 225.820312 189.058594 227.179688 189.40625 Z M 222.832031 188.398438 C 222.40625 188.324219 221.980469 188.207031 221.550781 188.128906 C 221.980469 188.207031 222.40625 188.324219 222.832031 188.398438 Z M 221.398438 188.089844 C 220.96875 188.011719 220.503906 187.898438 220.078125 187.820312 C 220.503906 187.898438 220.96875 188.011719 221.398438 188.089844 Z M 219.921875 187.78125 C 219.496094 187.703125 219.027344 187.625 218.601562 187.546875 C 219.027344 187.625 219.496094 187.703125 219.921875 187.78125 Z M 218.445312 187.507812 C 217.980469 187.433594 217.476562 187.355469 217.011719 187.238281 C 217.476562 187.316406 217.980469 187.394531 218.445312 187.507812 Z M 216.972656 187.238281 C 216.503906 187.160156 216 187.082031 215.535156 187.007812 C 216.039062 187.082031 216.503906 187.160156 216.972656 187.238281 Z M 215.457031 186.96875 C 214.992188 186.890625 214.527344 186.8125 214.058594 186.734375 C 214.527344 186.8125 214.992188 186.890625 215.457031 186.96875 Z M 213.90625 186.734375 C 213.4375 186.65625 212.933594 186.582031 212.429688 186.503906 C 212.933594 186.582031 213.398438 186.65625 213.90625 186.734375 Z M 212.351562 186.503906 C 211.847656 186.425781 211.34375 186.347656 210.839844 186.308594 C 211.34375 186.386719 211.847656 186.464844 212.351562 186.503906 Z M 210.800781 186.269531 C 210.292969 186.191406 209.789062 186.152344 209.285156 186.078125 C 209.789062 186.152344 210.292969 186.191406 210.800781 186.269531 Z M 209.207031 186.078125 C 208.703125 186 208.199219 185.960938 207.695312 185.882812 C 208.199219 185.960938 208.703125 186 209.207031 186.078125 Z M 207.65625 185.882812 C 207.148438 185.84375 206.644531 185.765625 206.140625 185.726562 C 206.644531 185.765625 207.148438 185.84375 207.65625 185.882812 Z M 206.023438 185.6875 C 205.519531 185.652344 205.015625 185.574219 204.472656 185.535156 C 204.976562 185.574219 205.519531 185.652344 206.023438 185.6875 Z M 204.433594 185.535156 C 203.890625 185.496094 203.386719 185.417969 202.839844 185.378906 C 203.386719 185.417969 203.929688 185.457031 204.433594 185.535156 Z M 202.765625 185.378906 C 202.257812 185.339844 201.753906 185.300781 201.210938 185.261719 C 201.714844 185.300781 202.21875 185.339844 202.765625 185.378906 Z M 201.054688 185.261719 C 200.550781 185.222656 200.046875 185.1875 199.582031 185.148438 C 200.085938 185.1875 200.589844 185.222656 201.054688 185.261719 Z M 199.425781 185.148438 C 195.582031 184.914062 191.660156 184.761719 187.625 184.761719 C 183.042969 184.761719 178.539062 184.914062 174.152344 185.261719 C 174.621094 185.222656 175.125 185.1875 175.589844 185.148438 L 176.910156 179.066406 C 176.210938 177.75 175.203125 175.8125 174.347656 174.265625 C 174.191406 174.304688 174.039062 174.304688 173.84375 174.304688 C 172.835938 174.304688 172.136719 173.644531 172.019531 172.597656 C 171.863281 170.816406 174.191406 169.539062 175.28125 168.996094 C 177.53125 164.425781 179.820312 159.316406 180.289062 157.535156 L 179.472656 157.03125 C 179.085938 156.757812 178.929688 156.253906 179.121094 155.828125 C 180.597656 152.460938 182.734375 148.394531 184.519531 148.277344 C 185.410156 148.199219 186.808594 147.773438 187.703125 147.503906 L 187.625 146.148438 C 187.351562 145.644531 187.160156 145.0625 187.082031 144.480469 L 186.886719 144.480469 C 186.5 144.445312 186.1875 144.171875 186.070312 143.824219 C 186.03125 143.707031 185.332031 141.421875 186.539062 139.640625 C 187.3125 138.480469 188.671875 137.859375 190.535156 137.742188 C 192.554688 137.628906 193.914062 138.128906 194.726562 139.214844 C 195.464844 140.222656 195.503906 141.421875 195.386719 142.195312 L 195.816406 142.351562 C 196.203125 142.507812 196.4375 142.855469 196.4375 143.242188 L 196.4375 144.054688 C 196.4375 144.597656 196.007812 145.023438 195.464844 145.023438 L 195.078125 145.023438 C 194.921875 145.683594 194.613281 146.300781 194.222656 146.804688 L 194.222656 147.503906 C 195.464844 147.96875 198.222656 149.050781 200.511719 150.367188 C 201.171875 150.757812 201.792969 150.949219 202.414062 150.949219 C 203.578125 150.949219 204.589844 150.214844 205.480469 149.363281 L 205.480469 148.433594 C 205.480469 148.007812 205.753906 147.65625 206.140625 147.503906 L 206.140625 145.683594 C 206.140625 145.140625 206.566406 144.714844 207.113281 144.714844 L 207.1875 144.714844 L 207.1875 142.429688 C 207.1875 141.925781 207.578125 141.539062 208.042969 141.5 L 209.671875 141.34375 L 202.144531 141.34375 C 201.597656 141.34375 201.171875 140.917969 201.171875 140.378906 L 201.171875 137.046875 C 201.171875 136.503906 201.597656 136.078125 202.144531 136.078125 L 214.136719 136.078125 C 214.679688 136.078125 215.109375 136.503906 215.109375 137.046875 L 215.109375 137.820312 C 215.1875 137.78125 215.261719 137.78125 215.378906 137.78125 C 215.921875 137.78125 216.351562 138.207031 216.351562 138.75 L 216.351562 141.769531 C 216.351562 142.273438 215.960938 142.660156 215.496094 142.738281 L 209.167969 143.359375 L 209.167969 144.792969 L 209.246094 144.792969 C 209.789062 144.792969 210.21875 145.21875 210.21875 145.761719 L 210.21875 151.066406 C 210.21875 152.578125 209.363281 153.738281 208.238281 153.738281 C 207.886719 153.738281 207.539062 153.621094 207.265625 153.429688 L 205.675781 155.945312 C 205.519531 156.179688 205.285156 156.332031 204.976562 156.371094 L 201.988281 156.757812 C 201.910156 156.914062 201.832031 157.03125 201.714844 157.144531 C 201.484375 157.339844 201.210938 157.417969 200.902344 157.339844 L 199 156.953125 L 197.484375 166.636719 C 197.679688 167.527344 198.414062 171.320312 198.300781 173.449219 C 198.300781 173.683594 198.183594 173.914062 198.027344 174.070312 C 197.792969 174.304688 196.902344 175.195312 196.28125 175.734375 C 196.320312 177.054688 196.476562 180.886719 196.550781 185.109375 C 197.523438 185.148438 198.453125 185.222656 199.425781 185.261719 Z M 174.113281 185.261719 C 173.570312 185.300781 173.027344 185.339844 172.484375 185.378906 C 173.027344 185.339844 173.570312 185.300781 174.113281 185.261719 Z M 172.484375 185.378906 C 171.4375 185.457031 170.386719 185.574219 169.339844 185.6875 C 170.386719 185.574219 171.4375 185.496094 172.484375 185.378906 Z M 169.183594 185.6875 C 168.679688 185.726562 168.175781 185.804688 167.671875 185.84375 C 168.175781 185.804688 168.679688 185.726562 169.183594 185.6875 Z M 167.59375 185.882812 C 167.089844 185.921875 166.585938 186 166.117188 186.078125 C 166.625 186 167.128906 185.960938 167.59375 185.882812 Z M 166.078125 186.078125 C 165.574219 186.152344 165.070312 186.191406 164.527344 186.269531 C 165.03125 186.191406 165.535156 186.152344 166.078125 186.078125 Z M 164.488281 186.269531 C 163.984375 186.347656 163.480469 186.425781 162.972656 186.464844 C 163.480469 186.386719 163.984375 186.308594 164.488281 186.269531 Z M 162.933594 186.503906 C 162.429688 186.582031 161.964844 186.65625 161.460938 186.734375 C 161.964844 186.65625 162.429688 186.582031 162.933594 186.503906 Z M 161.382812 186.734375 C 160.917969 186.8125 160.410156 186.890625 159.945312 186.96875 C 160.410156 186.890625 160.917969 186.8125 161.382812 186.734375 Z M 158.355469 187.238281 C 157.890625 187.316406 157.382812 187.394531 156.917969 187.507812 C 157.382812 187.433594 157.890625 187.355469 158.355469 187.238281 Z M 156.878906 187.507812 C 156.414062 187.585938 155.949219 187.703125 155.441406 187.78125 C 155.910156 187.703125 156.375 187.585938 156.878906 187.507812 Z M 155.367188 187.78125 C 154.898438 187.859375 154.433594 187.972656 153.96875 188.050781 C 154.433594 187.972656 154.898438 187.859375 155.367188 187.78125 Z M 153.929688 188.089844 C 153.464844 188.207031 152.996094 188.285156 152.53125 188.398438 C 152.996094 188.285156 153.464844 188.207031 153.929688 188.089844 Z M 158.355469 187.238281 L 158.433594 187.238281 C 158.9375 187.160156 159.402344 187.082031 159.90625 187.007812 L 159.945312 187.007812 Z M 225.085938 144.054688 C 223.300781 144.597656 221.4375 144.054688 220.195312 142.855469 C 221.242188 143.589844 222.5625 143.863281 223.882812 143.476562 C 226.132812 142.816406 227.414062 140.453125 226.753906 138.207031 C 226.09375 135.960938 223.726562 134.683594 221.472656 135.34375 C 220.660156 135.574219 220 136.039062 219.496094 136.621094 C 220.117188 135.652344 221.085938 134.878906 222.289062 134.527344 C 224.929688 133.753906 227.6875 135.226562 228.5 137.859375 C 229.277344 140.492188 227.800781 143.242188 225.164062 144.054688 Z M 149.621094 160.554688 C 150.398438 163.460938 148.648438 166.480469 145.699219 167.253906 C 142.789062 168.027344 139.761719 166.285156 138.984375 163.34375 C 138.207031 160.4375 139.953125 157.417969 142.90625 156.644531 C 145.816406 155.867188 148.84375 157.609375 149.621094 160.554688 Z M 155.519531 152.226562 C 151.171875 153.351562 146.746094 150.796875 145.621094 146.457031 C 144.496094 142.121094 147.058594 137.703125 151.40625 136.582031 C 151.5625 136.542969 151.679688 136.503906 151.832031 136.464844 C 148.570312 138.207031 146.785156 142.003906 147.757812 145.761719 C 148.84375 149.828125 152.804688 152.34375 156.839844 151.761719 C 156.414062 151.957031 155.988281 152.113281 155.519531 152.226562 Z M 209.167969 126.320312 C 207.578125 126.785156 205.90625 126.320312 204.78125 125.273438 C 205.714844 125.929688 206.917969 126.164062 208.082031 125.816406 C 210.101562 125.195312 211.226562 123.105469 210.644531 121.089844 C 210.0625 119.078125 207.925781 117.953125 205.90625 118.535156 C 205.171875 118.765625 204.589844 119.152344 204.121094 119.695312 C 204.664062 118.804688 205.558594 118.109375 206.605469 117.796875 C 208.976562 117.101562 211.460938 118.417969 212.15625 120.78125 C 212.855469 123.144531 211.535156 125.621094 209.167969 126.320312 Z M 160.0625 127.363281 C 157.695312 126.746094 155.753906 124.925781 155.09375 122.40625 C 154.125 118.6875 156.335938 114.894531 160.0625 113.925781 C 163.789062 112.957031 167.59375 115.164062 168.5625 118.882812 C 169.03125 120.585938 168.796875 122.289062 168.058594 123.722656 C 168.410156 122.679688 168.449219 121.554688 168.136719 120.394531 C 167.28125 117.21875 164.0625 115.359375 160.878906 116.171875 C 157.695312 117.023438 155.832031 120.238281 156.648438 123.414062 C 157.152344 125.234375 158.433594 126.667969 160.0625 127.363281 Z M 160.0625 127.363281 " fill-opacity="1" fill-rule="evenodd"/></g><g fill="#fefefe" fill-opacity="1"><g transform="translate(112.101795, 248.922827)"><g><path d="M 3.546875 0 C 3.035156 0 2.78125 -0.253906 2.78125 -0.765625 L 2.78125 -30.6875 C 2.78125 -31.195312 3.035156 -31.453125 3.546875 -31.453125 L 8.359375 -31.453125 C 8.742188 -31.453125 9.039062 -31.289062 9.25 -30.96875 L 15.765625 -20.453125 C 15.828125 -20.359375 15.894531 -20.3125 15.96875 -20.3125 C 16.050781 -20.3125 16.101562 -20.359375 16.125 -20.453125 L 22.734375 -30.96875 C 22.941406 -31.289062 23.242188 -31.453125 23.640625 -31.453125 L 28.453125 -31.453125 C 28.953125 -31.453125 29.203125 -31.195312 29.203125 -30.6875 L 29.203125 -0.765625 C 29.203125 -0.253906 28.953125 0 28.453125 0 L 23.640625 0 C 23.128906 0 22.875 -0.253906 22.875 -0.765625 L 22.875 -20.21875 C 22.875 -20.34375 22.835938 -20.414062 22.765625 -20.4375 C 22.691406 -20.46875 22.625 -20.425781 22.5625 -20.3125 L 18.015625 -12.890625 C 17.804688 -12.566406 17.507812 -12.40625 17.125 -12.40625 L 14.828125 -12.40625 C 14.441406 -12.40625 14.144531 -12.566406 13.9375 -12.890625 L 9.4375 -20.3125 C 9.375 -20.425781 9.304688 -20.46875 9.234375 -20.4375 C 9.160156 -20.414062 9.125 -20.34375 9.125 -20.21875 L 9.125 -0.765625 C 9.125 -0.253906 8.867188 0 8.359375 0 Z M 3.546875 0 "/></g></g></g><g fill="#fefefe" fill-opacity="1"><g transform="translate(155.200879, 248.922827)"><g><path d="M 13.9375 0.5 C 11.59375 0.5 9.53125 0.0195312 7.75 -0.9375 C 5.96875 -1.894531 4.582031 -3.234375 3.59375 -4.953125 C 2.601562 -6.679688 2.109375 -8.671875 2.109375 -10.921875 L 2.109375 -20.53125 C 2.109375 -22.75 2.601562 -24.710938 3.59375 -26.421875 C 4.582031 -28.128906 5.96875 -29.453125 7.75 -30.390625 C 9.53125 -31.335938 11.59375 -31.8125 13.9375 -31.8125 C 16.300781 -31.8125 18.375 -31.335938 20.15625 -30.390625 C 21.9375 -29.453125 23.320312 -28.128906 24.3125 -26.421875 C 25.300781 -24.710938 25.796875 -22.75 25.796875 -20.53125 L 25.796875 -10.921875 C 25.796875 -8.671875 25.300781 -6.675781 24.3125 -4.9375 C 23.320312 -3.207031 21.9375 -1.867188 20.15625 -0.921875 C 18.375 0.0234375 16.300781 0.5 13.9375 0.5 Z M 13.9375 -4.9375 C 15.582031 -4.9375 16.910156 -5.460938 17.921875 -6.515625 C 18.941406 -7.566406 19.453125 -8.957031 19.453125 -10.6875 L 19.453125 -20.578125 C 19.453125 -22.316406 18.953125 -23.71875 17.953125 -24.78125 C 16.953125 -25.84375 15.613281 -26.375 13.9375 -26.375 C 12.28125 -26.375 10.953125 -25.84375 9.953125 -24.78125 C 8.953125 -23.71875 8.453125 -22.316406 8.453125 -20.578125 L 8.453125 -10.6875 C 8.453125 -8.957031 8.953125 -7.566406 9.953125 -6.515625 C 10.953125 -5.460938 12.28125 -4.9375 13.9375 -4.9375 Z M 13.9375 -4.9375 "/></g></g></g><g fill="#fefefe" fill-opacity="1"><g transform="translate(194.255283, 248.922827)"><g><path d="M 13.9375 0.5 C 11.59375 0.5 9.53125 0.0195312 7.75 -0.9375 C 5.96875 -1.894531 4.582031 -3.234375 3.59375 -4.953125 C 2.601562 -6.679688 2.109375 -8.671875 2.109375 -10.921875 L 2.109375 -20.53125 C 2.109375 -22.75 2.601562 -24.710938 3.59375 -26.421875 C 4.582031 -28.128906 5.96875 -29.453125 7.75 -30.390625 C 9.53125 -31.335938 11.59375 -31.8125 13.9375 -31.8125 C 16.300781 -31.8125 18.375 -31.335938 20.15625 -30.390625 C 21.9375 -29.453125 23.320312 -28.128906 24.3125 -26.421875 C 25.300781 -24.710938 25.796875 -22.75 25.796875 -20.53125 L 25.796875 -10.921875 C 25.796875 -8.671875 25.300781 -6.675781 24.3125 -4.9375 C 23.320312 -3.207031 21.9375 -1.867188 20.15625 -0.921875 C 18.375 0.0234375 16.300781 0.5 13.9375 0.5 Z M 13.9375 -4.9375 C 15.582031 -4.9375 16.910156 -5.460938 17.921875 -6.515625 C 18.941406 -7.566406 19.453125 -8.957031 19.453125 -10.6875 L 19.453125 -20.578125 C 19.453125 -22.316406 18.953125 -23.71875 17.953125 -24.78125 C 16.953125 -25.84375 15.613281 -26.375 13.9375 -26.375 C 12.28125 -26.375 10.953125 -25.84375 9.953125 -24.78125 C 8.953125 -23.71875 8.453125 -22.316406 8.453125 -20.578125 L 8.453125 -10.6875 C 8.453125 -8.957031 8.953125 -7.566406 9.953125 -6.515625 C 10.953125 -5.460938 12.28125 -4.9375 13.9375 -4.9375 Z M 13.9375 -4.9375 "/></g></g></g><g fill="#fefefe" fill-opacity="1"><g transform="translate(233.30969, 248.922827)"><g><path d="M 3.5 0 C 2.988281 0 2.734375 -0.253906 2.734375 -0.765625 L 2.734375 -30.6875 C 2.734375 -31.195312 2.988281 -31.453125 3.5 -31.453125 L 8.140625 -31.453125 C 8.523438 -31.453125 8.820312 -31.289062 9.03125 -30.96875 L 20.265625 -12.265625 C 20.328125 -12.148438 20.394531 -12.101562 20.46875 -12.125 C 20.539062 -12.15625 20.578125 -12.234375 20.578125 -12.359375 L 20.578125 -30.6875 C 20.578125 -31.195312 20.832031 -31.453125 21.34375 -31.453125 L 26.0625 -31.453125 C 26.570312 -31.453125 26.828125 -31.195312 26.828125 -30.6875 L 26.828125 -0.765625 C 26.828125 -0.253906 26.570312 0 26.0625 0 L 21.484375 0 C 21.117188 0 20.816406 -0.179688 20.578125 -0.546875 L 9.296875 -19.40625 C 9.242188 -19.53125 9.175781 -19.578125 9.09375 -19.546875 C 9.019531 -19.515625 8.984375 -19.441406 8.984375 -19.328125 L 9.03125 -0.765625 C 9.03125 -0.253906 8.773438 0 8.265625 0 Z M 3.5 0 "/></g></g></g><g fill="#fefefe" fill-opacity="1"><g transform="translate(145.176498, 288.376563)"><g><path d="M 14.640625 -10.984375 C 14.554688 -10.941406 14.515625 -10.890625 14.515625 -10.828125 C 14.515625 -10.765625 14.554688 -10.71875 14.640625 -10.6875 C 16.421875 -9.738281 17.3125 -8.15625 17.3125 -5.9375 C 17.3125 -3.9375 16.617188 -2.445312 15.234375 -1.46875 C 13.859375 -0.488281 12.050781 0 9.8125 0 L 2.015625 0 C 1.847656 0 1.710938 -0.046875 1.609375 -0.140625 C 1.515625 -0.242188 1.46875 -0.378906 1.46875 -0.546875 L 1.46875 -20.453125 C 1.46875 -20.617188 1.515625 -20.75 1.609375 -20.84375 C 1.710938 -20.945312 1.847656 -21 2.015625 -21 L 9.5625 -21 C 12.007812 -21 13.859375 -20.535156 15.109375 -19.609375 C 16.359375 -18.691406 16.984375 -17.207031 16.984375 -15.15625 C 16.984375 -13.1875 16.203125 -11.796875 14.640625 -10.984375 Z M 6.65625 -16.734375 C 6.519531 -16.734375 6.453125 -16.664062 6.453125 -16.53125 L 6.453125 -12.875 C 6.453125 -12.726562 6.519531 -12.65625 6.65625 -12.65625 L 9.5625 -12.65625 C 10.382812 -12.65625 11.015625 -12.828125 11.453125 -13.171875 C 11.898438 -13.523438 12.125 -14.023438 12.125 -14.671875 C 12.125 -15.328125 11.898438 -15.832031 11.453125 -16.1875 C 11.015625 -16.550781 10.382812 -16.734375 9.5625 -16.734375 Z M 9.8125 -4.296875 C 10.613281 -4.296875 11.234375 -4.476562 11.671875 -4.84375 C 12.109375 -5.21875 12.328125 -5.753906 12.328125 -6.453125 C 12.328125 -7.128906 12.113281 -7.648438 11.6875 -8.015625 C 11.257812 -8.390625 10.632812 -8.578125 9.8125 -8.578125 L 6.65625 -8.578125 C 6.519531 -8.578125 6.453125 -8.507812 6.453125 -8.375 L 6.453125 -4.5 C 6.453125 -4.363281 6.519531 -4.296875 6.65625 -4.296875 Z M 9.8125 -4.296875 "/></g></g></g><g fill="#fefefe" fill-opacity="1"><g transform="translate(169.746481, 288.376563)"><g><path d="M 7.765625 -15.75 C 9.085938 -15.75 10.285156 -15.523438 11.359375 -15.078125 C 12.441406 -14.628906 13.289062 -14.007812 13.90625 -13.21875 C 14.53125 -12.425781 14.84375 -11.550781 14.84375 -10.59375 L 14.84375 -0.546875 C 14.84375 -0.378906 14.789062 -0.242188 14.6875 -0.140625 C 14.59375 -0.046875 14.46875 0 14.3125 0 L 10.40625 0 C 10.25 0 10.117188 -0.046875 10.015625 -0.140625 C 9.921875 -0.242188 9.875 -0.378906 9.875 -0.546875 L 9.875 -1.140625 C 9.875 -1.242188 9.847656 -1.300781 9.796875 -1.3125 C 9.742188 -1.332031 9.6875 -1.304688 9.625 -1.234375 C 8.832031 -0.253906 7.546875 0.234375 5.765625 0.234375 C 4.179688 0.234375 2.914062 -0.140625 1.96875 -0.890625 C 1.03125 -1.640625 0.5625 -2.742188 0.5625 -4.203125 C 0.5625 -5.742188 1.097656 -6.929688 2.171875 -7.765625 C 3.242188 -8.609375 4.789062 -9.03125 6.8125 -9.03125 L 9.65625 -9.03125 C 9.800781 -9.03125 9.875 -9.097656 9.875 -9.234375 L 9.875 -9.75 C 9.875 -10.289062 9.695312 -10.710938 9.34375 -11.015625 C 8.988281 -11.328125 8.492188 -11.484375 7.859375 -11.484375 C 7.398438 -11.484375 7.003906 -11.410156 6.671875 -11.265625 C 6.347656 -11.117188 6.113281 -10.914062 5.96875 -10.65625 C 5.863281 -10.507812 5.765625 -10.398438 5.671875 -10.328125 C 5.585938 -10.265625 5.476562 -10.242188 5.34375 -10.265625 L 1.3125 -10.765625 C 0.957031 -10.804688 0.800781 -10.945312 0.84375 -11.1875 C 0.9375 -12.050781 1.289062 -12.828125 1.90625 -13.515625 C 2.53125 -14.203125 3.347656 -14.742188 4.359375 -15.140625 C 5.367188 -15.546875 6.503906 -15.75 7.765625 -15.75 Z M 7.265625 -3.328125 C 8.023438 -3.328125 8.648438 -3.519531 9.140625 -3.90625 C 9.628906 -4.300781 9.875 -4.816406 9.875 -5.453125 L 9.875 -6.125 C 9.875 -6.257812 9.800781 -6.328125 9.65625 -6.328125 L 7.921875 -6.328125 C 7.160156 -6.328125 6.570312 -6.195312 6.15625 -5.9375 C 5.75 -5.675781 5.546875 -5.285156 5.546875 -4.765625 C 5.546875 -4.328125 5.695312 -3.976562 6 -3.71875 C 6.300781 -3.457031 6.722656 -3.328125 7.265625 -3.328125 Z M 7.265625 -3.328125 "/></g></g></g><g fill="#fefefe" fill-opacity="1"><g transform="translate(191.856464, 288.376563)"><g><path d="M 7.859375 0.234375 C 6.441406 0.234375 5.207031 0.0390625 4.15625 -0.34375 C 3.101562 -0.738281 2.289062 -1.289062 1.71875 -2 C 1.15625 -2.707031 0.875 -3.519531 0.875 -4.4375 L 0.875 -4.59375 C 0.875 -4.75 0.921875 -4.875 1.015625 -4.96875 C 1.117188 -5.070312 1.25 -5.125 1.40625 -5.125 L 5.09375 -5.125 C 5.457031 -5.125 5.640625 -5.066406 5.640625 -4.953125 L 5.640625 -4.765625 C 5.640625 -4.390625 5.84375 -4.078125 6.25 -3.828125 C 6.664062 -3.578125 7.191406 -3.453125 7.828125 -3.453125 C 8.390625 -3.453125 8.835938 -3.546875 9.171875 -3.734375 C 9.515625 -3.921875 9.6875 -4.175781 9.6875 -4.5 C 9.6875 -4.820312 9.503906 -5.054688 9.140625 -5.203125 C 8.785156 -5.359375 8.21875 -5.503906 7.4375 -5.640625 C 6.175781 -5.878906 5.15625 -6.171875 4.375 -6.515625 C 3.375 -6.929688 2.566406 -7.457031 1.953125 -8.09375 C 1.347656 -8.738281 1.046875 -9.601562 1.046875 -10.6875 C 1.046875 -12.238281 1.648438 -13.46875 2.859375 -14.375 C 4.078125 -15.289062 5.675781 -15.75 7.65625 -15.75 C 8.988281 -15.75 10.160156 -15.53125 11.171875 -15.09375 C 12.179688 -14.664062 12.96875 -14.0625 13.53125 -13.28125 C 14.09375 -12.507812 14.375 -11.613281 14.375 -10.59375 C 14.375 -10.488281 14.320312 -10.398438 14.21875 -10.328125 C 14.113281 -10.265625 13.984375 -10.234375 13.828125 -10.234375 L 10.265625 -10.234375 C 9.898438 -10.234375 9.71875 -10.289062 9.71875 -10.40625 L 9.71875 -10.59375 C 9.71875 -10.96875 9.535156 -11.273438 9.171875 -11.515625 C 8.816406 -11.753906 8.328125 -11.875 7.703125 -11.875 C 7.148438 -11.875 6.695312 -11.78125 6.34375 -11.59375 C 5.988281 -11.40625 5.8125 -11.140625 5.8125 -10.796875 C 5.8125 -10.460938 6 -10.21875 6.375 -10.0625 C 6.757812 -9.914062 7.40625 -9.75 8.3125 -9.5625 C 9.53125 -9.320312 10.347656 -9.132812 10.765625 -9 C 11.984375 -8.601562 12.9375 -8.0625 13.625 -7.375 C 14.320312 -6.695312 14.671875 -5.789062 14.671875 -4.65625 C 14.671875 -3.09375 14.054688 -1.882812 12.828125 -1.03125 C 11.597656 -0.1875 9.941406 0.234375 7.859375 0.234375 Z M 7.859375 0.234375 "/></g></g></g><g fill="#fefefe" fill-opacity="1"><g transform="translate(213.246455, 288.376563)"><g><path d="M 9.0625 -3.984375 C 9.675781 -3.984375 10.25 -4.078125 10.78125 -4.265625 C 11.3125 -4.460938 11.757812 -4.722656 12.125 -5.046875 C 12.238281 -5.179688 12.367188 -5.25 12.515625 -5.25 C 12.628906 -5.25 12.75 -5.179688 12.875 -5.046875 L 14.734375 -2.8125 C 14.847656 -2.675781 14.90625 -2.550781 14.90625 -2.4375 C 14.90625 -2.289062 14.847656 -2.160156 14.734375 -2.046875 C 14.046875 -1.316406 13.179688 -0.753906 12.140625 -0.359375 C 11.109375 0.0351562 10 0.234375 8.8125 0.234375 C 7.457031 0.234375 6.253906 -0.0078125 5.203125 -0.5 C 4.148438 -0.988281 3.285156 -1.671875 2.609375 -2.546875 C 1.503906 -3.953125 0.953125 -5.734375 0.953125 -7.890625 C 0.953125 -8.847656 1.066406 -9.75 1.296875 -10.59375 C 1.734375 -12.15625 2.59375 -13.410156 3.875 -14.359375 C 5.15625 -15.304688 6.65625 -15.78125 8.375 -15.78125 C 10.375 -15.78125 11.988281 -15.160156 13.21875 -13.921875 C 14.445312 -12.679688 15.25 -10.953125 15.625 -8.734375 C 15.707031 -8.171875 15.769531 -7.5625 15.8125 -6.90625 C 15.8125 -6.539062 15.628906 -6.359375 15.265625 -6.359375 L 6.203125 -6.359375 C 6.148438 -6.359375 6.097656 -6.335938 6.046875 -6.296875 C 5.992188 -6.253906 5.976562 -6.195312 6 -6.125 L 6.1875 -5.515625 C 6.382812 -5.035156 6.734375 -4.660156 7.234375 -4.390625 C 7.734375 -4.117188 8.34375 -3.984375 9.0625 -3.984375 Z M 8.28125 -11.484375 C 7.257812 -11.484375 6.566406 -10.992188 6.203125 -10.015625 C 6.128906 -9.816406 6.082031 -9.664062 6.0625 -9.5625 L 6.0625 -9.515625 C 6.0625 -9.390625 6.128906 -9.328125 6.265625 -9.328125 L 10.375 -9.328125 C 10.457031 -9.328125 10.515625 -9.351562 10.546875 -9.40625 C 10.578125 -9.457031 10.582031 -9.507812 10.5625 -9.5625 L 10.4375 -9.953125 C 10.28125 -10.441406 10.019531 -10.816406 9.65625 -11.078125 C 9.300781 -11.347656 8.84375 -11.484375 8.28125 -11.484375 Z M 8.28125 -11.484375 "/></g></g></g></svg>